<svg width="77" height="22" viewBox="0 0 77 22" fill="none" xmlns="http://www.w3.org/2000/svg">
<path d="M13.644 4.4C13.776 4.4 13.89 4.448 13.986 4.544C14.082 4.64 14.13 4.754 14.13 4.886V16.514C14.13 16.646 14.082 16.76 13.986 16.856C13.89 16.952 13.776 17 13.644 17H9.936C9.804 17 9.69 16.952 9.594 16.856C9.498 16.76 9.45 16.646 9.45 16.514V12.68H5.85V16.514C5.85 16.646 5.802 16.76 5.706 16.856C5.61 16.952 5.496 17 5.364 17H1.656C1.524 17 1.41 16.958 1.314 16.874C1.218 16.778 1.17 16.658 1.17 16.514V4.886C1.17 4.754 1.218 4.64 1.314 4.544C1.41 4.448 1.524 4.4 1.656 4.4H5.364C5.496 4.4 5.61 4.448 5.706 4.544C5.802 4.64 5.85 4.754 5.85 4.886V8.576H9.45V4.886C9.45 4.754 9.498 4.64 9.594 4.544C9.69 4.448 9.804 4.4 9.936 4.4H13.644ZM20.351 16.388C20.195 16.796 19.925 17 19.541 17H16.139C16.031 17 15.935 16.964 15.851 16.892C15.779 16.808 15.743 16.712 15.743 16.604L15.761 16.496L19.685 4.994C19.733 4.838 19.823 4.7 19.955 4.58C20.087 4.46 20.267 4.4 20.495 4.4H25.499C25.727 4.4 25.907 4.46 26.039 4.58C26.171 4.7 26.261 4.838 26.309 4.994L30.233 16.496L30.251 16.604C30.251 16.712 30.209 16.808 30.125 16.892C30.053 16.964 29.963 17 29.855 17H26.453C26.069 17 25.799 16.796 25.643 16.388L25.193 15.128H20.801L20.351 16.388ZM22.997 7.874L21.719 11.618H24.275L22.997 7.874ZM45.3819 16.442C45.4059 16.49 45.4179 16.544 45.4179 16.604C45.4179 16.712 45.3759 16.808 45.2919 16.892C45.2199 16.964 45.1299 17 45.0219 17H40.9359C40.7679 17 40.6119 16.958 40.4679 16.874C40.3359 16.79 40.2399 16.682 40.1799 16.55L38.5959 12.986H37.0839V16.514C37.0839 16.646 37.0359 16.76 36.9399 16.856C36.8439 16.952 36.7299 17 36.5979 17H32.7099C32.5779 17 32.4639 16.952 32.3679 16.856C32.2719 16.76 32.2239 16.646 32.2239 16.514V4.886C32.2239 4.754 32.2719 4.64 32.3679 4.544C32.4639 4.448 32.5779 4.4 32.7099 4.4H39.7119C40.7919 4.4 41.7339 4.574 42.5379 4.922C43.3539 5.27 43.9779 5.774 44.4099 6.434C44.8419 7.094 45.0579 7.868 45.0579 8.756C45.0579 10.388 44.4279 11.57 43.1679 12.302L45.3819 16.442ZM39.3339 9.656C39.5979 9.656 39.8019 9.572 39.9459 9.404C40.0899 9.224 40.1619 9.002 40.1619 8.738C40.1619 8.474 40.0899 8.246 39.9459 8.054C39.8139 7.85 39.6099 7.748 39.3339 7.748H37.0839V9.656H39.3339ZM55.3649 4.4C56.4929 4.4 57.4769 4.592 58.3169 4.976C59.1569 5.36 59.7989 5.882 60.2429 6.542C60.6869 7.202 60.9089 7.94 60.9089 8.756C60.9089 10.1 60.4889 11.156 59.6489 11.924C58.8089 12.68 57.3809 13.058 55.3649 13.058H52.9889V16.514C52.9889 16.646 52.9409 16.76 52.8449 16.856C52.7489 16.952 52.6349 17 52.5029 17H48.6329C48.5009 17 48.3869 16.952 48.2909 16.856C48.1949 16.76 48.1469 16.646 48.1469 16.514V4.886C48.1469 4.754 48.1949 4.64 48.2909 4.544C48.3869 4.448 48.5009 4.4 48.6329 4.4H55.3649ZM55.2929 9.728C55.5809 9.728 55.8089 9.644 55.9769 9.476C56.1449 9.296 56.2289 9.062 56.2289 8.774C56.2289 8.474 56.1449 8.228 55.9769 8.036C55.8089 7.844 55.5809 7.748 55.2929 7.748H53.0069V9.728H55.2929ZM75.4099 4.4C75.5179 4.4 75.6079 4.442 75.6799 4.526C75.7639 4.598 75.8059 4.682 75.8059 4.778C75.8059 4.85 75.7879 4.922 75.7519 4.994L71.2159 12.5V16.514C71.2159 16.646 71.1679 16.76 71.0719 16.856C70.9759 16.952 70.8619 17 70.7299 17H66.8959C66.7639 17 66.6499 16.952 66.5539 16.856C66.4579 16.76 66.4099 16.646 66.4099 16.514V12.5L61.8919 4.994C61.8559 4.922 61.8379 4.856 61.8379 4.796C61.8379 4.688 61.8739 4.598 61.9459 4.526C62.0299 4.442 62.1259 4.4 62.2339 4.4H66.0319C66.3679 4.4 66.6139 4.538 66.7699 4.814L68.8039 8.378L70.8919 4.85C71.0719 4.55 71.3239 4.4 71.6479 4.4H75.4099Z" fill="#3C403F"/>
</svg>
